<!-- images/favicon.svg -->
<svg xmlns="http://www.w3.org/2000/svg" viewBox="0 0 640 512" width="32" height="32">
  <path fill="black" d="M64 64C46.3 64 32 78.3 32 96v256c0 17.7 14.3 32 32 32h224v32H176c-8.8 0-16 7.2-16 16s7.2 16 16 16h288c8.8 0 16-7.2 16-16s-7.2-16-16-16H352v-32h224c17.7 0 32-14.3 32-32V96c0-17.7-14.3-32-32-32H64zm160.4 82.6c6.2 6.2 6.2 16.4 0 22.6L194.6 192l29.8 29.8c6.2 6.2 6.2 16.4 0 22.6s-16.4 6.2-22.6 0l-41.1-41.1c-6.2-6.2-6.2-16.4 0-22.6l41.1-41.1c6.2-6.2 16.4-6.2 22.6 0zm151.2 0 41.1 41.1c6.2 6.2 6.2 16.4 0 22.6l-41.1 41.1c-6.2 6.2-16.4 6.2-22.6 0s-6.2-16.4 0-22.6L362.7 192l-29.8-29.8c-6.2-6.2-6.2-16.4 0-22.6s16.4-6.2 22.6 0z"/>
</svg>
